<svg width="37" height="40" viewBox="0 0 37 40" fill="none" xmlns="http://www.w3.org/2000/svg">
<path d="M4.74699 26.1236C4.74136 26.0375 4.73741 25.9509 4.73741 25.8634C4.73741 24.328 5.62492 23 6.90466 22.3818C6.65219 22.1518 6.41132 21.9136 6.18617 21.6656C6.03489 21.4988 5.82478 21.4002 5.60206 21.3914C5.37909 21.3819 5.16226 21.4639 4.99854 21.6179L3.14696 23.3604C2.80607 23.6812 2.78515 24.2226 3.10023 24.5697C3.60139 25.1222 4.15297 25.6404 4.74699 26.1236Z" fill="#319F1C"/>
<path d="M35.9677 38.465L34.3147 34.4908L34.4676 34.3954C34.8632 34.148 34.9872 33.6212 34.7443 33.2183L30.7205 26.5412C31.5207 25.9434 32.2525 25.2854 32.9006 24.5711C33.2157 24.224 33.1948 23.6825 32.8538 23.3618L31.0023 21.6192C30.8386 21.4652 30.6206 21.3835 30.3987 21.3926C30.176 21.4015 29.9659 21.5003 29.8146 21.6669C29.4225 22.099 28.9871 22.5041 28.5148 22.8811L23.5376 14.6219C24.1817 13.5889 24.5564 12.3657 24.5564 11.0544C24.5564 8.51892 23.1609 6.30944 21.1109 5.17972C21.6022 4.69825 21.9089 4.02269 21.9089 3.27524C21.9089 1.81715 20.744 0.630859 19.312 0.630859H16.6898C15.2578 0.630859 14.0929 1.81715 14.0929 3.27524C14.0929 4.02269 14.3996 4.69825 14.8909 5.17972C12.8409 6.30944 11.4454 8.51892 11.4454 11.0544C11.4454 12.3657 11.8201 13.5889 12.4643 14.6217L7.98633 22.0527C8.16097 22.0274 8.33923 22.0134 8.5206 22.0134C10.2807 22.0134 11.7639 23.2443 12.1837 24.905L16.601 17.5749C17.0524 17.6752 17.5204 17.7297 18.0009 17.7297C18.4814 17.7297 18.9494 17.6752 19.4008 17.5749L24.0287 25.2547C22.1807 25.8686 20.1304 26.1998 18.0008 26.1998C15.9837 26.1998 14.0379 25.9022 12.2677 25.3492C12.2899 25.518 12.3026 25.6897 12.3026 25.8646C12.3026 27.2977 11.5291 28.5497 10.3855 29.2127C12.7355 30.0339 15.3271 30.4787 18.0008 30.4787C20.9247 30.4787 23.7512 29.9482 26.2699 28.9737L30.4461 35.9039C30.5626 36.0973 30.75 36.2357 30.9666 36.2885C31.0314 36.3044 31.097 36.312 31.1623 36.312C31.3163 36.312 31.4687 36.2689 31.6019 36.1856L31.8406 36.0364L34.5929 39.3287C34.6752 39.4272 34.7934 39.4793 34.9132 39.4793C34.9888 39.4793 35.0653 39.4586 35.1337 39.4156L35.801 38.9963C35.978 38.885 36.0485 38.6595 35.9677 38.465ZM18.001 15.1621C15.7766 15.1621 13.9668 13.3194 13.9668 11.0543C13.9668 9.23752 15.1316 7.69342 16.7403 7.15299V9.59943C16.7403 10.3084 17.3048 10.8831 18.001 10.8831C18.6972 10.8831 19.2617 10.3084 19.2617 9.59943V7.15299C20.8704 7.69334 22.0352 9.23744 22.0352 11.0543C22.0352 13.3194 20.2254 15.1621 18.001 15.1621Z" fill="#319F1C"/>
<path d="M4.94034 27.1055L1.25663 33.2184C1.0139 33.621 1.13779 34.148 1.53339 34.3953L1.68635 34.4909L0.0333459 38.4651C-0.0475898 38.6594 0.0230083 38.8851 0.199588 38.9961L0.866992 39.4154C0.935405 39.4584 1.01172 39.4791 1.08753 39.4791C1.20721 39.4791 1.32538 39.4273 1.40774 39.3285L4.15997 36.0362L4.39883 36.1854C4.53213 36.2687 4.6845 36.3118 4.83839 36.3118C4.90378 36.3118 4.96942 36.3039 5.03405 36.2883C5.2508 36.2355 5.43814 36.0971 5.55471 35.9037L9.33936 29.6232C9.0752 29.6828 8.80121 29.7154 8.51966 29.7154C6.86077 29.7155 5.44889 28.6218 4.94034 27.1055Z" fill="#319F1C"/>
<path d="M8.48975 27.9193C9.60375 27.9193 10.5068 26.9995 10.5068 25.8649C10.5068 24.7303 9.60375 23.8105 8.48975 23.8105C7.37574 23.8105 6.47266 24.7303 6.47266 25.8649C6.47266 26.9995 7.37574 27.9193 8.48975 27.9193Z" fill="#319F1C"/>
</svg>
