<svg width="30" height="30" viewBox="0 0 30 30" fill="none" xmlns="http://www.w3.org/2000/svg">
<path d="M15 0.000976562L0 12.052L2.21701 14.8115L15 4.54176L27.783 14.8115L30 12.052L15 0.000976562Z" fill="#319F1C"/>
<path d="M27.5456 26.4814H2.45508V29.9999H27.5456V26.4814Z" fill="#319F1C"/>
<path d="M14.9999 16.8188C13.5138 16.8188 12.3047 18.028 12.3047 19.5141V24.7234H17.6952V19.5141C17.6952 18.0279 16.4861 16.8188 14.9999 16.8188Z" fill="#319F1C"/>
<path d="M14.9997 6.79565L10.3252 10.5512H19.6744L14.9997 6.79565Z" fill="#319F1C"/>
<path d="M21.8629 12.3088H8.13769L5.09375 14.7543V17.6372H10.9635C11.6731 16.1173 13.2152 15.0611 15.0003 15.0611C16.7853 15.0611 18.3276 16.1174 19.0371 17.6372H24.9069V14.7544L21.8629 12.3088Z" fill="#319F1C"/>
<path d="M5.09375 19.395V24.7234H10.5472V19.5141C10.5472 19.4742 10.5492 19.4347 10.5502 19.395H5.09375Z" fill="#319F1C"/>
<path d="M19.4502 19.395C19.4512 19.4347 19.4532 19.4742 19.4532 19.5141V24.7234H24.9067V19.395H19.4502Z" fill="#319F1C"/>
</svg>
