<svg width="48" height="36" viewBox="0 0 48 36" fill="none" xmlns="http://www.w3.org/2000/svg">
<path d="M31.1778 13.2775C31.8886 13.2777 32.5745 13.4994 33.1054 13.9007C33.6362 14.302 33.9751 14.8549 34.0575 15.4543L34.0778 15.74V26.4961C34.0968 28.7415 33.0782 30.9037 31.2408 32.5187C29.4033 34.1336 26.8935 35.0724 24.25 35.1336C21.6065 35.1949 19.0402 34.3736 17.1018 32.8462C15.1634 31.3188 14.0075 29.2069 13.8822 26.9639L13.8677 26.4961V15.74C13.8679 15.1365 14.1291 14.554 14.6017 14.1032C15.0743 13.6525 15.7254 13.3647 16.4313 13.2947L16.7677 13.2775H31.1778ZM31.1778 15.74H16.7677V26.4961C16.7635 28.0859 17.4885 29.6147 18.789 30.7585C20.0896 31.9023 21.8635 32.5711 23.7348 32.6233C25.6062 32.6755 27.4279 32.1069 28.8141 31.0381C30.2002 29.9692 31.0417 28.4841 31.1604 26.8975L31.1778 26.4961V15.74ZM11.7478 13.2775C11.3258 13.8958 11.0685 14.585 10.9938 15.2967L10.9677 15.74H3.74671V24.9496C3.7464 25.7131 3.97134 26.4645 4.40099 27.1352C4.83064 27.8058 5.45132 28.3744 6.20633 28.789C6.96134 29.2036 7.82664 29.451 8.72321 29.5085C9.61978 29.5661 10.519 29.4321 11.3389 29.1186C11.5709 29.9288 11.9073 30.7044 12.3394 31.4333C11.1183 31.8688 9.79194 32.0493 8.4717 31.9596C7.15145 31.8699 5.8758 31.5126 4.75175 30.9178C3.62769 30.323 2.68803 29.5079 2.01159 28.541C1.33514 27.5741 0.941647 26.4836 0.86411 25.3609L0.849609 24.9472V15.74C0.849703 15.1368 1.11048 14.5547 1.58248 14.104C2.05449 13.6533 2.70488 13.3653 3.41031 13.2947L3.74961 13.2775H11.7449H11.7478ZM36.2006 13.2775H44.2742C44.9849 13.2777 45.6709 13.4994 46.2018 13.9007C46.7326 14.302 47.0714 14.8549 47.1539 15.4543L47.1742 15.74V24.9496C47.1743 26.1142 46.8338 27.2605 46.1834 28.2857C45.5329 29.3109 44.5928 30.1829 43.4475 30.8235C42.3022 31.464 40.9875 31.853 39.6214 31.9556C38.2553 32.0582 36.8805 31.8711 35.6206 31.4112C36.0498 30.6774 36.3862 29.9017 36.6153 29.0891C37.403 29.4011 38.2681 29.5466 39.1365 29.5129C40.0048 29.4793 40.8507 29.2675 41.6017 28.8958C42.3527 28.5241 42.9865 28.0034 43.4488 27.3784C43.9112 26.7534 44.1884 26.0425 44.2568 25.3067L44.2742 24.9496V15.74H36.9778L36.9604 15.3731C36.8971 14.6347 36.6373 13.9182 36.2006 13.2775ZM23.9684 0.903564C25.6816 0.903564 27.3247 1.48146 28.5361 2.51013C29.7476 3.5388 30.4282 4.93397 30.4282 6.38873C30.4282 7.84348 29.7476 9.23866 28.5361 10.2673C27.3247 11.296 25.6816 11.8739 23.9684 11.8739C22.2552 11.8739 20.6121 11.296 19.4007 10.2673C18.1892 9.23866 17.5087 7.84348 17.5087 6.38873C17.5087 4.93397 18.1892 3.5388 19.4007 2.51013C20.6121 1.48146 22.2552 0.903564 23.9684 0.903564ZM38.4307 2.45C39.9024 2.45 41.3139 2.94643 42.3545 3.8301C43.3952 4.71376 43.9798 5.91226 43.9798 7.16194C43.9798 8.41163 43.3952 9.61013 42.3545 10.4938C41.3139 11.3775 39.9024 11.8739 38.4307 11.8739C36.959 11.8739 35.5475 11.3775 34.5069 10.4938C33.4662 9.61013 32.8815 8.41163 32.8815 7.16194C32.8815 5.91226 33.4662 4.71376 34.5069 3.8301C35.5475 2.94643 36.959 2.45 38.4307 2.45ZM9.54961 2.45C11.0213 2.45 12.4328 2.94643 13.4734 3.8301C14.5141 4.71376 15.0988 5.91226 15.0988 7.16194C15.0988 8.41163 14.5141 9.61013 13.4734 10.4938C12.4328 11.3775 11.0213 11.8739 9.54961 11.8739C8.07788 11.8739 6.66643 11.3775 5.62577 10.4938C4.5851 9.61013 4.00046 8.41163 4.00046 7.16194C4.00046 5.91226 4.5851 4.71376 5.62577 3.8301C6.66643 2.94643 8.07788 2.45 9.54961 2.45ZM23.9684 3.36604C23.0243 3.36604 22.1189 3.6845 21.4513 4.25136C20.7837 4.81823 20.4087 5.58706 20.4087 6.38873C20.4087 7.19039 20.7837 7.95923 21.4513 8.52609C22.1189 9.09295 23.0243 9.41142 23.9684 9.41142C24.9125 9.41142 25.8179 9.09295 26.4855 8.52609C27.1531 7.95923 27.5282 7.19039 27.5282 6.38873C27.5282 5.58706 27.1531 4.81823 26.4855 4.25136C25.8179 3.6845 24.9125 3.36604 23.9684 3.36604ZM38.4307 4.91247C37.7281 4.91247 37.0543 5.14947 36.5575 5.57133C36.0607 5.99319 35.7815 6.56535 35.7815 7.16194C35.7815 7.75854 36.0607 8.3307 36.5575 8.75256C37.0543 9.17442 37.7281 9.41142 38.4307 9.41142C39.1333 9.41142 39.8071 9.17442 40.3039 8.75256C40.8007 8.3307 41.0798 7.75854 41.0798 7.16194C41.0798 6.56535 40.8007 5.99319 40.3039 5.57133C39.8071 5.14947 39.1333 4.91247 38.4307 4.91247ZM9.54961 4.91247C8.84701 4.91247 8.17319 5.14947 7.67638 5.57133C7.17956 5.99319 6.90046 6.56535 6.90046 7.16194C6.90046 7.75854 7.17956 8.3307 7.67638 8.75256C8.17319 9.17442 8.84701 9.41142 9.54961 9.41142C10.2522 9.41142 10.926 9.17442 11.4228 8.75256C11.9197 8.3307 12.1988 7.75854 12.1988 7.16194C12.1988 6.56535 11.9197 5.99319 11.4228 5.57133C10.926 5.14947 10.2522 4.91247 9.54961 4.91247Z" fill="black"/>
</svg>
