<svg width="64" height="64" viewBox="0 0 64 64" fill="none" xmlns="http://www.w3.org/2000/svg">
<circle cx="32" cy="32" r="32" fill="#E4E4E4"/>
<circle cx="32" cy="32" r="25" fill="white"/>
<path d="M30.6875 39.8116C30.075 39.3516 29.1875 39.7866 29.1875 40.5616V41.4191C28.42 41.3766 27.67 41.3204 26.9588 41.2416C20.865 40.6141 18.875 39.1291 18.875 38.6866C18.875 38.5516 19.2863 37.9154 21.285 37.2504C21.7 37.1541 22.0063 36.7816 22.0063 36.3366C22.0063 35.7204 21.3588 35.2554 20.7713 35.4454C18.2688 36.2641 17 37.3541 17 38.6866C17 41.7691 23.83 42.8041 26.76 43.1066C27.535 43.1916 28.3488 43.2541 29.1875 43.2991V44.3116C29.1875 45.0866 30.075 45.5204 30.6875 45.0616L33.1875 43.1866C33.685 42.8129 33.6875 42.0616 33.1875 41.6866L30.6875 39.8116Z" fill="#319F1C"/>
<path d="M43.2221 35.4471C42.7271 35.2858 42.2008 35.5558 42.0396 36.0483C41.8796 36.5408 42.1483 37.0696 42.6408 37.2308C44.6683 37.8908 45.1246 38.5208 45.1246 38.6896C45.1246 39.2433 42.5533 40.7871 36.1896 41.3183C35.6733 41.3621 35.2908 41.8146 35.3333 42.3308C35.3746 42.8246 35.7971 43.2246 36.3458 43.1871C39.5483 42.9171 46.9996 41.9433 46.9996 38.6883C46.9996 37.3546 45.7283 36.2633 43.2221 35.4471Z" fill="#319F1C"/>
<path d="M32 19L40.75 22.75L32 26.5L23.25 22.75L32 19Z" fill="#319F1C"/>
<path d="M33.25 28.6845V35.9645L40.75 32.7507V25.4707L33.25 28.6845Z" fill="#319F1C"/>
<path d="M30.75 28.6845L23.25 25.4707V32.7507L30.75 35.9645V28.6845Z" fill="#319F1C"/>
</svg>
