<svg width="25" height="25" viewBox="0 0 25 25" fill="none" xmlns="http://www.w3.org/2000/svg">
<path fill-rule="evenodd" clip-rule="evenodd" d="M12.4838 22.7924C10.6614 22.7924 8.86591 22.3033 7.29818 21.3855C7.13069 21.2917 6.93639 21.2381 6.7488 21.2381C6.64831 21.2381 6.55451 21.2515 6.46072 21.2783L3.04386 22.2162L4.23641 19.5966C4.39721 19.2349 4.35701 18.8262 4.12252 18.5046C2.85627 16.7426 2.1796 14.659 2.1796 12.4883C2.1796 6.8069 6.8024 2.1841 12.4838 2.1841C18.1651 2.1841 22.7879 6.8069 22.7879 12.4883C22.7879 18.1696 18.1651 22.7924 12.4838 22.7924ZM12.4838 0C5.60315 0 0.00219823 5.60095 0.00219823 12.4883C0.00219823 14.9068 0.685568 17.2316 1.99201 19.255L0.0959941 23.4289C-0.0781982 23.8175 -0.0112012 24.2663 0.263487 24.5879C0.471178 24.8358 0.779364 24.9698 1.08755 24.9698C1.18805 24.9698 1.28184 24.9564 1.38234 24.9296L6.60141 23.4959C8.41033 24.4606 10.4336 24.9698 12.4838 24.9698C19.371 24.9698 24.972 19.3688 24.972 12.4883C24.972 5.60095 19.371 0 12.4838 0Z" fill="#319F1C"/>
<path fill-rule="evenodd" clip-rule="evenodd" d="M17.2872 14.3577C16.7646 14.0428 16.0813 13.6944 15.4649 13.949C14.9959 14.1366 14.6944 14.8803 14.3862 15.2555C14.2254 15.4498 14.0378 15.4833 13.7967 15.3828C12.0279 14.6793 10.6679 13.4934 9.68974 11.8587C9.52224 11.6108 9.54904 11.4098 9.75003 11.1753C10.0448 10.827 10.42 10.4317 10.5004 9.9627C10.5808 9.49372 10.3597 8.94435 10.1654 8.52226C9.91753 7.99299 9.63614 7.22922 9.10686 6.92773C8.61108 6.65305 7.96791 6.80714 7.52573 7.16222C6.76867 7.7786 6.40688 8.74335 6.42028 9.70141C6.42028 9.9694 6.45378 10.2374 6.51408 10.5054C6.66817 11.1351 6.96296 11.7247 7.29124 12.2808C7.53913 12.7029 7.80712 13.1116 8.09521 13.5068C9.04657 14.7999 10.2257 15.9187 11.5925 16.7562C12.2758 17.1716 13.0128 17.5401 13.7699 17.788C14.6274 18.076 15.3845 18.3641 16.309 18.1899C17.2738 18.009 18.2252 17.4128 18.6137 16.4815C18.7276 16.2068 18.7812 15.8986 18.7142 15.6039C18.5869 15.0076 17.7696 14.6458 17.2872 14.3577Z" fill="#319F1C"/>
</svg>
