<svg width="30" height="30" viewBox="0 0 30 30" fill="none" xmlns="http://www.w3.org/2000/svg">
<path d="M8.51619 1.12646H3.55078V8.2142L8.51619 3.65086V1.12646Z" fill="#319F1C"/>
<path d="M18.6094 27.0037V30H29.9999V28.2422H27.4317V27.0037H18.6094Z" fill="#319F1C"/>
<path d="M22.0352 19.0884H27.4316V21.3197H22.0352V19.0884Z" fill="#319F1C"/>
<path d="M2.56836 14.928V17.3306H9.54266V23.0776H2.56836V25.2458H11.3906V17.5053H18.6096V25.2458H27.4319V23.0776H20.2777V17.3306H27.4319V14.928H2.56836Z" fill="#319F1C"/>
<path d="M13.1484 19.2632H16.8517V30H13.1484V19.2632Z" fill="#319F1C"/>
<path d="M11.3905 27.0037H2.56822V28.2422H0V30H11.3905V27.0037Z" fill="#319F1C"/>
<path d="M3.26215 13.1702H26.7414L28.7703 15.0336L30 13.7389L14.9999 0L0 13.7854L1.18336 15.0799L3.26215 13.1702ZM18.0642 5.20096L19.9781 6.95877H10.0235L11.9369 5.20096H18.0642ZM7.53568 9.24416H22.4665L24.3805 11.002H5.6223L7.53568 9.24416Z" fill="#319F1C"/>
<path d="M2.56836 19.0884H7.78485V21.3197H2.56836V19.0884Z" fill="#319F1C"/>
</svg>
