<svg width="35" height="29" viewBox="0 0 35 29" fill="none" xmlns="http://www.w3.org/2000/svg">
<path d="M13.1729 10.8437H22.2524L17.7255 7.13623L13.1729 10.8437Z" fill="white"/>
<path d="M1.75274 13.7154L3.11507 15.3747C3.35816 15.6708 3.79497 15.7146 4.092 15.4727L17.7298 4.36674L30.9483 15.1928C31.2509 15.4406 31.6982 15.3904 31.9383 15.0817L33.2752 13.3624C33.5069 13.0643 33.4586 12.6359 33.1664 12.3968L18.22 0.17159C17.9646 -0.0373166 17.5976 -0.0380687 17.3413 0.169812L1.8522 12.7336C1.55251 12.9767 1.50794 13.4172 1.75274 13.7154V13.7154Z" fill="white"/>
<path d="M13.0196 16.9915H7.48569C6.98045 16.9915 6.56934 17.4082 6.56934 17.9204C6.56934 18.4326 6.98045 18.8494 7.48569 18.8494H13.0196V16.9915Z" fill="white"/>
<path d="M24.8715 12.9885H10.5392L8.25781 14.8464H27.14L24.8715 12.9885Z" fill="white"/>
<path d="M6.56934 21.9233C6.56934 22.4355 6.98045 22.8523 7.48569 22.8523H13.0196V20.9944H7.48569C6.98045 20.9944 6.56934 21.4111 6.56934 21.9233V21.9233Z" fill="white"/>
<path d="M28.0645 16.9915H21.9131V18.8494H28.0645C28.5698 18.8494 28.9809 18.4327 28.9809 17.9205C28.9809 17.4082 28.5699 16.9915 28.0645 16.9915V16.9915Z" fill="white"/>
<path d="M10.4159 1.88703C10.4159 1.455 10.0656 1.10473 9.63355 1.10473L7.17781 1.08374C6.74571 1.08374 6.39551 1.43401 6.39551 1.86605V6.32855L10.4159 3.02522V1.88703H10.4159Z" fill="white"/>
<path d="M33.9275 26.8552H28.0646C28.5698 26.8552 28.981 26.4384 28.981 25.9262C28.981 25.4139 28.5699 24.9972 28.0646 24.9972H21.9131V26.8552H19.7682V16.9915H15.1647V26.8552H13.0197V24.9972H7.48583C6.98059 24.9972 6.56947 25.4139 6.56947 25.9262C6.56947 26.4384 6.98059 26.8552 7.48583 26.8552H1.07249C0.480225 26.8552 0 27.3353 0 27.9276C0 28.5199 0.480225 29.0001 1.07249 29.0001H33.9275C34.5198 29.0001 35 28.5199 35 27.9276C35 27.3353 34.5198 26.8552 33.9275 26.8552Z" fill="white"/>
<path d="M28.9809 21.9233C28.9809 21.4111 28.5699 20.9944 28.0645 20.9944H21.9131V22.8523H28.0645C28.5699 22.8523 28.9809 22.4355 28.9809 21.9233V21.9233Z" fill="white"/>
</svg>
