<svg width="48" height="48" viewBox="0 0 48 48" fill="none" xmlns="http://www.w3.org/2000/svg">
<path d="M10.6441 4.80005C9.73068 4.79984 8.85138 5.14683 8.18427 5.7707C7.51717 6.39458 7.11214 7.24871 7.05125 8.16005L4.97285 39.36C4.94 39.8518 5.00846 40.345 5.174 40.8093C5.33954 41.2735 5.59864 41.6987 5.93523 42.0587C6.27183 42.4187 6.67876 42.7058 7.13081 42.9021C7.58286 43.0984 8.07041 43.1998 8.56325 43.2H15.4345C15.9273 43.1998 16.4148 43.0984 16.8669 42.9021C17.319 42.7058 17.7259 42.4187 18.0625 42.0587C18.3991 41.6987 18.6582 41.2735 18.8237 40.8093C18.9892 40.345 19.0577 39.8518 19.0249 39.36L16.9465 8.16005C16.8856 7.24871 16.4805 6.39458 15.8134 5.7707C15.1463 5.14683 14.267 4.79984 13.3537 4.80005H10.6441ZM9.44645 8.32085C9.46658 8.01651 9.60184 7.73126 9.82474 7.52307C10.0476 7.31488 10.3415 7.19938 10.6465 7.20005H13.3537C13.6582 7.19999 13.9515 7.31577 14.1738 7.52389C14.3962 7.73202 14.5312 8.01693 14.5513 8.32085L16.6321 39.5208C16.6429 39.685 16.6199 39.8496 16.5645 40.0044C16.5091 40.1593 16.4224 40.3011 16.3099 40.4211C16.1973 40.541 16.0613 40.6366 15.9103 40.7018C15.7593 40.7669 15.5965 40.8004 15.4321 40.8H8.56565C8.40158 40.7997 8.23931 40.7658 8.08887 40.7003C7.93843 40.6348 7.80302 40.5392 7.69101 40.4193C7.57899 40.2994 7.49275 40.1578 7.43762 40.0033C7.38248 39.8488 7.35962 39.6846 7.37045 39.5208L9.44885 8.32085H9.44645ZM39.6001 43.2H20.2321C20.7659 42.4902 21.1349 41.6704 21.3121 40.8H24.0001V31.2C24.0001 30.5635 24.2529 29.9531 24.703 29.503C25.1531 29.0529 25.7635 28.8 26.4001 28.8H36.0001C36.6366 28.8 37.247 29.0529 37.6971 29.503C38.1472 29.9531 38.4001 30.5635 38.4001 31.2V40.8H39.6001C39.9183 40.8 40.2235 40.6736 40.4486 40.4486C40.6736 40.2235 40.8001 39.9183 40.8001 39.6V15.8952L30.8017 24.8928C30.6292 25.0485 30.4153 25.1507 30.1859 25.1872C29.9565 25.2236 29.7215 25.1927 29.5093 25.0982C29.2971 25.0036 29.117 24.8496 28.9906 24.6546C28.8643 24.4597 28.7973 24.2323 28.7977 24V15.8952L20.3737 23.4792L20.1697 20.4312L29.1961 12.3072C29.3685 12.1516 29.5824 12.0494 29.8118 12.0129C30.0412 11.9765 30.2762 12.0074 30.4884 12.1019C30.7006 12.1965 30.8807 12.3505 31.0071 12.5455C31.1334 12.7404 31.2004 12.9678 31.2001 13.2V21.3048L41.1961 12.3072C41.3685 12.1516 41.5824 12.0494 41.8118 12.0129C42.0412 11.9765 42.2762 12.0074 42.4884 12.1019C42.7006 12.1965 42.8807 12.3505 43.0071 12.5455C43.1334 12.7404 43.2004 12.9678 43.2001 13.2V39.6C43.2001 40.5548 42.8208 41.4705 42.1456 42.1456C41.4705 42.8208 40.5548 43.2 39.6001 43.2ZM26.4001 40.8H36.0001V31.2H26.4001V40.8Z" fill="black"/>
</svg>
