<svg width="46" height="45" viewBox="0 0 46 45" fill="none" xmlns="http://www.w3.org/2000/svg">
<g clip-path="url(#clip0_0_2614)">
<path d="M11.551 5.3569C8.87983 4.68126 6.08028 4.9679 3.88686 6.19122C1.65235 7.43501 0.0856254 9.63851 0.00857335 12.5919C-0.109573 17.2036 0.961451 23.3919 5.21472 30.655C9.41406 37.8286 14.05 42.1255 17.8975 44.6822C20.3272 46.2971 23.0112 46.3406 25.3048 45.2862C27.565 44.2497 29.3988 42.1818 30.3517 39.6149C30.5888 38.9765 30.6841 38.2944 30.6309 37.6157C30.5777 36.937 30.3773 36.2779 30.0435 35.6839L27.5932 31.3255C26.8396 29.9854 25.6272 28.9601 24.1776 28.4371C22.728 27.9141 21.1379 27.9283 19.6979 28.4771L17.9874 29.1271C17.1578 29.4445 16.395 29.2986 15.9635 28.8738C14.5123 27.4534 13.4747 25.5237 13.0047 23.4482C12.8557 22.793 13.1588 22.0201 13.8831 21.475L15.4267 20.3131C16.6746 19.3748 17.5361 18.0151 17.8496 16.4889C18.1631 14.9628 17.9071 13.3752 17.1295 12.0237L14.6331 7.68581C14.3023 7.11151 13.859 6.60936 13.3295 6.20927C12.8 5.80917 12.1952 5.5193 11.551 5.3569ZM2.57698 12.6584C2.62834 10.6801 3.63516 9.26486 5.14024 8.42287C6.68642 7.56297 8.79765 7.29937 10.9191 7.83425C11.5484 7.99548 12.0826 8.39984 12.4062 8.96031L14.9002 13.2957C15.3673 14.1064 15.5215 15.0592 15.3338 15.9752C15.1461 16.8912 14.6293 17.7075 13.8805 18.2708L12.3369 19.4302C11.0013 20.4334 10.0767 22.1558 10.4979 24.0112C11.0681 26.5244 12.3292 28.9045 14.163 30.7011C15.5037 32.0114 17.4146 32.0882 18.9043 31.52L20.6149 30.8674C21.4791 30.5378 22.4335 30.5291 23.3037 30.843C24.1738 31.157 24.9014 31.7725 25.3536 32.577L27.8013 36.9354C28.1095 37.4831 28.1608 38.1382 27.9425 38.7268C27.1977 40.7333 25.7979 42.2432 24.2312 42.9624C22.6978 43.6662 20.9642 43.6457 19.323 42.5529C15.8017 40.2138 11.438 36.2009 7.43126 29.3651C3.42198 22.5064 2.47167 16.789 2.57954 12.6584H2.57698ZM40.6227 5.43112C40.7423 5.54999 40.8372 5.69119 40.9019 5.84666C40.9667 6.00212 41 6.16878 41 6.33709C41 6.50541 40.9667 6.67207 40.9019 6.82753C40.8372 6.98299 40.7423 7.1242 40.6227 7.24306L27.7807 20.0393C27.6614 20.1584 27.5197 20.253 27.3637 20.3175C27.2077 20.382 27.0404 20.4152 26.8715 20.4152C26.7026 20.4152 26.5353 20.382 26.3793 20.3175C26.2233 20.253 26.0816 20.1584 25.9623 20.0393L20.8255 14.9208C20.5843 14.6805 20.4489 14.3546 20.4489 14.0148C20.4489 13.675 20.5843 13.3491 20.8255 13.1088C21.0666 12.8686 21.3937 12.7336 21.7347 12.7336C22.0757 12.7336 22.4028 12.8686 22.6439 13.1088L26.8715 17.3239L38.8043 5.43112C38.9236 5.31195 39.0653 5.21741 39.2213 5.1529C39.3773 5.08839 39.5446 5.05519 39.7135 5.05519C39.8824 5.05519 40.0497 5.08839 40.2057 5.1529C40.3617 5.21741 40.5034 5.31195 40.6227 5.43112Z" fill="black"/>
</g>
<defs>
<clipPath id="clip0_0_2614">
<rect width="46" height="45" fill="white"/>
</clipPath>
</defs>
</svg>
