<svg width="58" height="58" viewBox="0 0 58 58" fill="none" xmlns="http://www.w3.org/2000/svg">
<path fill-rule="evenodd" clip-rule="evenodd" d="M16.9163 7.24992C16.2754 7.24992 15.6607 7.50453 15.2075 7.95774C14.7543 8.41096 14.4997 9.02565 14.4997 9.66659V43.4999C14.4997 44.1409 14.7543 44.7556 15.2075 45.2088C15.6607 45.662 16.2754 45.9166 16.9163 45.9166H30.208V48.3333H16.9163C15.6345 48.3333 14.4051 47.824 13.4987 46.9176C12.5922 46.0112 12.083 44.7818 12.083 43.4999V9.66659C12.083 8.38471 12.5922 7.15533 13.4987 6.2489C14.4051 5.34248 15.6345 4.83325 16.9163 4.83325H41.083C42.3649 4.83325 43.5943 5.34248 44.5007 6.2489C45.4071 7.15533 45.9163 8.38471 45.9163 9.66659V43.4999C45.9163 44.7818 45.4071 46.0112 44.5007 46.9176C43.5943 47.824 42.3649 48.3333 41.083 48.3333H37.458V45.9166H41.083C41.7239 45.9166 42.3386 45.662 42.7919 45.2088C43.2451 44.7556 43.4997 44.1409 43.4997 43.4999V9.66659C43.4997 9.02565 43.2451 8.41096 42.7919 7.95774C42.3386 7.50453 41.7239 7.24992 41.083 7.24992H16.9163Z" fill="black"/>
<path fill-rule="evenodd" clip-rule="evenodd" d="M21.75 13.2916C21.75 12.9711 21.8773 12.6638 22.1039 12.4372C22.3305 12.2106 22.6379 12.0833 22.9583 12.0833H35.0417C35.3621 12.0833 35.6695 12.2106 35.8961 12.4372C36.1227 12.6638 36.25 12.9711 36.25 13.2916C36.25 13.6121 36.1227 13.9194 35.8961 14.146C35.6695 14.3726 35.3621 14.4999 35.0417 14.4999H22.9583C22.6379 14.4999 22.3305 14.3726 22.1039 14.146C21.8773 13.9194 21.75 13.6121 21.75 13.2916Z" fill="black"/>
<path fill-rule="evenodd" clip-rule="evenodd" d="M16.916 20.5416C16.916 20.2211 17.0433 19.9138 17.2699 19.6872C17.4965 19.4606 17.8039 19.3333 18.1243 19.3333H39.8743C40.1948 19.3333 40.5022 19.4606 40.7288 19.6872C40.9554 19.9138 41.0827 20.2211 41.0827 20.5416C41.0827 20.8621 40.9554 21.1694 40.7288 21.396C40.5022 21.6226 40.1948 21.7499 39.8743 21.7499H18.1243C17.8039 21.7499 17.4965 21.6226 17.2699 21.396C17.0433 21.1694 16.916 20.8621 16.916 20.5416Z" fill="black"/>
<path fill-rule="evenodd" clip-rule="evenodd" d="M16.916 25.3748C16.916 25.0544 17.0433 24.747 17.2699 24.5204C17.4965 24.2938 17.8039 24.1665 18.1243 24.1665H39.8743C40.1948 24.1665 40.5022 24.2938 40.7288 24.5204C40.9554 24.747 41.0827 25.0544 41.0827 25.3748C41.0827 25.6953 40.9554 26.0027 40.7288 26.2293C40.5022 26.4559 40.1948 26.5832 39.8743 26.5832H18.1243C17.8039 26.5832 17.4965 26.4559 17.2699 26.2293C17.0433 26.0027 16.916 25.6953 16.916 25.3748Z" fill="black"/>
<path fill-rule="evenodd" clip-rule="evenodd" d="M16.916 30.2083C16.916 29.8879 17.0433 29.5805 17.2699 29.3539C17.4965 29.1273 17.8039 29 18.1243 29H39.8743C40.1948 29 40.5022 29.1273 40.7288 29.3539C40.9554 29.5805 41.0827 29.8879 41.0827 30.2083C41.0827 30.5288 40.9554 30.8361 40.7288 31.0628C40.5022 31.2894 40.1948 31.4167 39.8743 31.4167H18.1243C17.8039 31.4167 17.4965 31.2894 17.2699 31.0628C17.0433 30.8361 16.916 30.5288 16.916 30.2083Z" fill="black"/>
<path fill-rule="evenodd" clip-rule="evenodd" d="M33.8333 42.2915C34.4743 42.2915 35.089 42.0369 35.5422 41.5837C35.9954 41.1305 36.25 40.5158 36.25 39.8748C36.25 39.2339 35.9954 38.6192 35.5422 38.166C35.089 37.7128 34.4743 37.4582 33.8333 37.4582C33.1924 37.4582 32.5777 37.7128 32.1245 38.166C31.6713 38.6192 31.4167 39.2339 31.4167 39.8748C31.4167 40.5158 31.6713 41.1305 32.1245 41.5837C32.5777 42.0369 33.1924 42.2915 33.8333 42.2915ZM33.8333 44.7082C35.1152 44.7082 36.3446 44.1989 37.251 43.2925C38.1574 42.3861 38.6667 41.1567 38.6667 39.8748C38.6667 38.593 38.1574 37.3636 37.251 36.4572C36.3446 35.5507 35.1152 35.0415 33.8333 35.0415C32.5515 35.0415 31.3221 35.5507 30.4157 36.4572C29.5092 37.3636 29 38.593 29 39.8748C29 41.1567 29.5092 42.3861 30.4157 43.2925C31.3221 44.1989 32.5515 44.7082 33.8333 44.7082Z" fill="black"/>
<path fill-rule="evenodd" clip-rule="evenodd" d="M32.6247 42.2915H30.208V53.1665L33.833 51.354L37.458 53.1665V42.2915H35.0413V49.2563L33.833 48.6522L32.6247 49.2563V42.2915Z" fill="black"/>
</svg>
