<svg width="25" height="24" viewBox="0 0 25 24" fill="none" xmlns="http://www.w3.org/2000/svg">
<path fill-rule="evenodd" clip-rule="evenodd" d="M12.149 16.0003C10.0634 16.0003 8.36719 14.3072 8.36719 12.2268C8.36719 10.1456 10.0631 8.45312 12.149 8.45312C14.2335 8.45312 15.9297 10.1456 15.9297 12.2268C15.9297 14.3072 14.2335 16.0003 12.149 16.0003Z" fill="white"/>
<path fill-rule="evenodd" clip-rule="evenodd" d="M24.0593 7.33061C24.0593 3.36219 20.8353 0.145796 16.8584 0.145796L7.35655 0.145508C3.37961 0.145508 0.15625 3.36219 0.15625 7.33061L0.156539 16.8145C0.156539 20.7826 3.37961 23.9996 7.35655 23.9996H16.8584C20.8356 23.9996 24.059 20.7826 24.059 16.8145L24.0593 7.33061ZM18.3959 4.53769C17.6192 4.53769 16.9905 5.16539 16.9905 5.93992C16.9905 6.71445 17.6189 7.34215 18.3959 7.34215C19.1721 7.34186 19.7999 6.71445 19.7999 5.93992C19.8002 5.16539 19.1721 4.53769 18.3959 4.53769ZM12.1484 6.33541C8.89293 6.33541 6.24481 8.97804 6.24481 12.227C6.2451 15.4746 8.89293 18.1175 12.1484 18.1175C15.4032 18.1172 18.0505 15.4746 18.0505 12.227C18.0505 8.97804 15.4032 6.3357 12.1484 6.33541Z" fill="white"/>
</svg>
