<svg width="36" height="45" viewBox="0 0 36 45" fill="none" xmlns="http://www.w3.org/2000/svg">
<path d="M12.7561 35.063H15.417L15.1822 34.1068C15.1039 33.788 14.7909 33.4693 14.3996 33.4693H13.304C12.0518 33.4693 10.8779 32.8317 10.0953 31.7958L7.66921 28.3691L4.69531 29.6442L11.4257 34.5849C11.7388 34.9037 12.2866 35.063 12.7561 35.063Z" fill="#319F1C"/>
<path d="M24.2607 10.3594H10.1737C9.15634 10.3594 8.29547 10.997 7.98242 11.9536H26.452C26.139 10.997 25.2781 10.3594 24.2607 10.3594Z" fill="#319F1C"/>
<path d="M24.2607 8.76577C25.0433 8.76577 25.8259 9.00484 26.452 9.48297C25.8259 6.13604 23.5564 3.26724 20.3477 2.1516V7.172H18.7824V0.796888C18.7824 0.318755 18.4694 0 17.9998 0H16.4346C15.965 0 15.652 0.318755 15.652 0.796888V7.172H14.0868V2.1516C10.8781 3.26724 8.53025 6.05635 7.98242 9.48297C8.60851 9.00484 9.39112 8.76577 10.1737 8.76577H24.2607Z" fill="#319F1C"/>
<path d="M21.0524 33.4685H19.9567C19.5654 33.4685 19.2524 33.7076 19.1741 34.106L19.0176 35.0623H21.6784C22.148 35.0623 22.6958 34.9029 23.0871 34.5842L28.1741 30.7591V28.7668L26.7654 28.209L24.261 31.795C23.5567 32.831 22.3828 33.4685 21.0524 33.4685Z" fill="#319F1C"/>
<path d="M32.8687 26.7754C32.8687 26.4567 32.2426 25.9785 31.3035 25.9785C30.3644 25.9785 29.7383 26.4567 29.7383 26.7754V34.1068L32.8687 29.6442V26.7754Z" fill="#319F1C"/>
<path d="M9.39139 18.8064V19.2845C9.39139 21.3564 10.487 23.1893 12.2088 24.1455L14.5566 25.4206C16.2001 26.2971 18.1566 26.2971 19.8001 25.4206L22.1479 24.1455C23.8696 23.1893 24.9653 21.2767 24.9653 19.2845V18.8064L26.374 17.9298C26.4523 17.8501 26.5305 17.7704 26.5305 17.611V15.3797C26.5305 15.2203 26.374 15.061 26.1392 15.061C26.061 15.061 25.9827 15.061 25.9827 15.1407L25.0436 16.2563V13.5469H9.39139V16.2563L8.374 15.2203C8.21748 15.061 7.98269 15.1407 7.90443 15.2203C7.82617 15.3 7.82617 15.3797 7.82617 15.3797V17.611C7.82617 17.6907 7.90443 17.8501 7.98269 17.9298L9.39139 18.8064Z" fill="#319F1C"/>
<path d="M32.8695 41.4395V37.6934L30.4434 41.4395H32.8695Z" fill="#319F1C"/>
<path d="M34.4356 30.202V30.2817H34.3574L24.2617 44.6256H36.0009V27.9707L34.4356 30.202ZM34.4356 43.0318H27.4704L34.4356 32.4333V43.0318Z" fill="#319F1C"/>
<path d="M28.174 32.752L23.9478 35.8598C23.2435 36.338 22.4609 36.6567 21.6783 36.6567H18V44.6256H22.3044L28.174 36.338V32.752Z" fill="#319F1C"/>
<path d="M7.04297 43.0312H12.5212V44.6254H7.04297V43.0312Z" fill="#319F1C"/>
<path d="M7.04297 39.8438H12.5212V41.4378H7.04297V39.8438Z" fill="#319F1C"/>
<path d="M20.0344 31.8751H21.13C21.9126 31.8751 22.617 31.4766 23.0083 30.8391L25.2778 27.6516L21.7561 26.2969L20.5822 26.9344C18.4691 28.1297 15.9648 28.1297 13.8518 26.9344L12.6779 26.2969L9.23438 27.7313L11.4257 30.8391C11.8952 31.4766 12.5996 31.8751 13.3039 31.8751H14.3996C15.4952 31.8751 16.4344 32.5923 16.6691 33.7079L17.217 35.7798L17.7648 33.7079C17.9996 32.5923 18.9387 31.8751 20.0344 31.8751Z" fill="#319F1C"/>
<path d="M10.487 35.8603L3.13044 30.4414C1.17392 31.7961 0 34.0274 0 36.4181V44.626H5.47827V38.2509H6.80871L6.26088 36.0196L7.74784 35.6212L8.37393 38.1712H14.087V44.5463H16.4348V36.6571H12.7565C11.8957 36.6571 11.1131 36.4181 10.487 35.8603Z" fill="#319F1C"/>
</svg>
