<svg width="28" height="24" viewBox="0 0 28 24" fill="none" xmlns="http://www.w3.org/2000/svg">
<path fill-rule="evenodd" clip-rule="evenodd" d="M5.38569 8.64079L4.1683 9.10532L3.76784 9.25749C3.35137 9.39365 2.9429 9.58587 2.52643 9.73804C1.99782 9.92225 0.972656 10.2907 0.972656 10.9714C0.972656 11.492 1.50927 11.5881 1.8857 11.7003L7.17973 13.3261C8.10879 13.6064 7.86051 13.6785 8.34906 13.3902C9.23007 12.8536 10.087 12.2689 10.968 11.7403L13.2667 10.2987C13.4989 10.1545 13.6912 10.0184 13.9314 9.87419L22.1248 4.71631C22.341 4.58817 22.5813 4.40396 22.8456 4.41998C23.4863 4.45201 22.9978 4.94858 22.7575 5.1408C22.4291 5.4051 22.1168 5.72547 21.8044 5.99778L19.3937 8.2083L19.3776 8.22431L17.5195 9.93026C17.1591 10.2987 16.4623 10.8433 16.0859 11.2277L15.8536 11.452L14.404 12.7655C14.0516 13.1179 13.531 13.5264 13.2186 13.8467L12.9783 14.071L12.2735 14.7197C11.761 15.2403 11.4886 15.1842 11.4967 15.8009C11.4967 16.1614 11.3204 17.8993 11.2884 18.3158C11.2163 19.1808 11.1923 19.9977 11.1042 20.8627C11.0722 21.135 11.0401 21.3913 11.0401 21.7117C11.761 21.6877 12.3536 21.071 12.8342 20.5984C12.9863 20.4382 13.1385 20.27 13.3067 20.1259L13.4349 20.0138L14.428 19.0446L14.444 19.0286C14.6923 18.8044 15.0367 18.4039 15.269 18.2437L16.158 18.9005C16.6786 19.325 17.7598 20.0778 18.3445 20.5183L21.3719 22.7689C21.6042 22.9291 22.1408 23.1453 22.5092 23.1453C22.7655 23.1453 22.9577 23.0252 23.1099 22.905C23.2621 22.7769 23.3662 22.5927 23.4543 22.4085C23.6865 21.944 24.2552 18.9806 24.3753 18.3639C24.3994 18.2437 24.4394 18.1236 24.4554 18.0275L26.706 7.43942C26.8742 6.76665 26.9623 6.06185 27.1465 5.36505L27.2907 4.70831C27.4108 4.03554 27.8273 2.47376 27.8273 1.95317C27.8273 1.25637 27.4749 0.519531 26.706 0.519531C26.1453 0.519531 24.7678 1.17628 24.1591 1.40054L23.7506 1.5447L22.5092 2.02525L22.1087 2.17742L14.7644 5.01265L14.3639 5.17284L12.7301 5.80556C12.4577 5.92569 12.1774 5.99778 11.9131 6.1099L7.82847 7.6877L7.42801 7.84788C6.76326 8.13621 6.07447 8.37649 5.38569 8.64079Z" fill="#319F1C"/>
</svg>
